<svg preserveAspectRatio="none" overflow="visible" style="display: block;" width="36.0833" height="36.0833" viewBox="0 0 36.0833 36.0833" fill="none" xmlns="http://www.w3.org/2000/svg">
<g id="Group">
<path id="Vector" d="M33.0417 24.7083H26.375C25.4545 24.7083 24.7083 25.4545 24.7083 26.375V33.0417C24.7083 33.9621 25.4545 34.7083 26.375 34.7083H33.0417C33.9621 34.7083 34.7083 33.9621 34.7083 33.0417V26.375C34.7083 25.4545 33.9621 24.7083 33.0417 24.7083Z" stroke="#ED1D23" stroke-width="2.75" stroke-linecap="round" stroke-linejoin="round"/>
<path id="Vector_2" d="M9.70833 24.7083H3.04167C2.12119 24.7083 1.375 25.4545 1.375 26.375V33.0417C1.375 33.9621 2.12119 34.7083 3.04167 34.7083H9.70833C10.6288 34.7083 11.375 33.9621 11.375 33.0417V26.375C11.375 25.4545 10.6288 24.7083 9.70833 24.7083Z" stroke="#ED1D23" stroke-width="2.75" stroke-linecap="round" stroke-linejoin="round"/>
<path id="Vector_3" d="M21.375 1.375H14.7083C13.7879 1.375 13.0417 2.12119 13.0417 3.04167V9.70833C13.0417 10.6288 13.7879 11.375 14.7083 11.375H21.375C22.2955 11.375 23.0417 10.6288 23.0417 9.70833V3.04167C23.0417 2.12119 22.2955 1.375 21.375 1.375Z" stroke="#ED1D23" stroke-width="2.75" stroke-linecap="round" stroke-linejoin="round"/>
<path id="Vector_4" d="M6.375 24.7083V19.7083C6.375 19.2663 6.55059 18.8424 6.86316 18.5298C7.17572 18.2173 7.59964 18.0417 8.04167 18.0417H28.0417C28.4837 18.0417 28.9076 18.2173 29.2202 18.5298C29.5327 18.8424 29.7083 19.2663 29.7083 19.7083V24.7083M18.0417 18.0417V11.375" stroke="#ED1D23" stroke-width="2.75" stroke-linecap="round" stroke-linejoin="round"/>
</g>
</svg>
