<svg preserveAspectRatio="none" overflow="visible" style="display: block;" width="36.0836" height="36.0835" viewBox="0 0 36.0836 36.0835" fill="none" xmlns="http://www.w3.org/2000/svg">
<g id="Group">
<path id="Vector" d="M20.375 1.37515H8.04167C7.15761 1.37515 6.30977 1.72634 5.68464 2.35146C5.05952 2.97658 4.70833 3.82443 4.70833 4.70848V31.3751C4.70833 32.2592 5.05952 33.107 5.68464 33.7322C6.30977 34.3573 7.15761 34.7085 8.04167 34.7085H28.0417C28.9257 34.7085 29.7736 34.3573 30.3987 33.7322C31.0238 33.107 31.375 32.2592 31.375 31.3751V19.0418M1.375 8.04182H8.04167M1.375 14.7085H8.04167M1.375 21.3751H8.04167M1.375 28.0418H8.04167" stroke="#ED1D23" stroke-width="2.75" stroke-linecap="round" stroke-linejoin="round"/>
<path id="Vector_2" d="M33.6717 7.41858C34.3356 6.75466 34.7086 5.85418 34.7086 4.91525C34.7086 3.97632 34.3356 3.07584 33.6717 2.41191C33.0077 1.74799 32.1073 1.375 31.1683 1.375C30.2294 1.375 29.3289 1.74799 28.665 2.41191L20.315 10.7652C19.9187 11.1613 19.6287 11.6508 19.4717 12.1886L18.0767 16.9719C18.0348 17.1153 18.0323 17.2674 18.0694 17.4121C18.1065 17.5568 18.1818 17.6889 18.2874 17.7945C18.393 17.9001 18.5251 17.9754 18.6699 18.0125C18.8146 18.0496 18.9666 18.0471 19.11 18.0052L23.8933 16.6102C24.4311 16.4532 24.9206 16.1632 25.3167 15.7669L33.6717 7.41858Z" stroke="#ED1D23" stroke-width="2.75" stroke-linecap="round" stroke-linejoin="round"/>
</g>
</svg>
